# Blender v3.5.0 OBJ File: ''
# www.blender.org
o Cube
v -0.498311 2.500000 -0.498311
v -0.498311 2.500000 0.498311
v 0.498311 2.500000 -0.498311
v 0.498311 2.500000 0.498311
v -0.498311 1.500000 -0.498311
v -0.498311 1.500000 0.498311
v 0.498311 1.500000 -0.498311
v 0.498311 1.500000 0.498311
v 0.496959 0.498986 0.498986
v 0.498311 0.500000 -0.498311
v -0.498311 0.500000 -0.498311
v -0.496959 0.498986 0.498986
v 0.496959 -0.501014 0.501014
v 0.498311 -0.500000 -0.498311
v -0.498311 -0.500000 -0.498311
v -0.498311 -0.500000 0.500000
v 0.496959 -1.498986 0.501014
v 0.498311 -1.500000 -0.498311
v -0.498311 -1.500000 -0.498311
v -0.498311 -1.500000 0.500000
v 0.496959 -2.498986 0.498986
v 0.498311 -2.500000 -0.498311
v -0.498311 -2.500000 -0.498311
v -0.496959 -2.498986 0.498986
v -0.498311 -1.500000 1.498311
v 0.498311 -2.500000 0.250000
v 0.498311 -2.500000 0.000000
v 0.498311 -2.500000 -0.250000
v -0.498311 -2.500000 0.250000
v -0.498311 -2.500000 0.000000
v -0.498311 -2.500000 -0.250000
v 0.498311 -2.750000 -0.250000
v 0.498311 -2.750000 -0.498311
v -0.498311 -2.750000 -0.498311
v 0.498311 -2.748311 0.498311
v -0.498311 -2.748311 0.498311
v -0.498311 -2.750000 -0.250000
v 0.496959 -2.748986 0.248986
v 0.498311 -2.750000 0.000000
v -0.496959 -2.748986 0.248986
v -0.498311 -2.750000 0.000000
v 0.498311 -3.000000 -0.250000
v 0.498311 -3.000000 -0.498311
v -0.498311 -3.000000 -0.498311
v -0.498311 -3.000000 -0.250000
v 0.498311 -2.998311 0.248311
v 0.496959 -2.998986 -0.001014
v -0.498311 -2.998311 0.248311
v -0.496959 -2.998986 -0.001014
v 0.496959 -3.248986 -0.251014
v 0.498311 -3.250000 -0.498311
v -0.498311 -3.250000 -0.498311
v -0.496959 -3.248986 -0.251014
v 0.498311 -3.248311 -0.001689
v -0.498311 -3.248311 -0.001689
v 0.498311 -3.498311 -0.251689
v 0.498311 -3.498311 -0.498311
v -0.498311 -3.498311 -0.498311
v -0.498311 -3.498311 -0.251689
v 0.498311 -1.498311 0.750000
v -0.498311 -1.500000 0.750000
v -0.498311 -2.250000 0.500000
v -0.498311 -2.000000 0.500000
v -0.498311 -1.750000 0.500000
v 0.498311 -2.250000 0.500000
v 0.498311 -2.000000 0.500000
v 0.498311 -1.750000 0.500000
v 0.498311 -2.498311 0.748311
v -0.498311 -2.498311 0.748311
v -0.498311 -1.750000 0.750000
v 0.498311 -1.750000 0.750000
v -0.496959 -2.248986 0.748986
v -0.498311 -2.000000 0.750000
v 0.496959 -2.248986 0.748986
v 0.498311 -2.000000 0.750000
v 0.498311 -1.498311 1.000000
v -0.498311 -1.500000 1.000000
v -0.498311 -1.750000 1.000000
v 0.498311 -1.750000 1.000000
v -0.498311 -2.248311 0.998311
v -0.496959 -1.998986 0.998986
v 0.498311 -2.248311 0.998311
v 0.496959 -1.998986 0.998986
v 0.498311 -1.498311 1.250000
v -0.498311 -1.500000 1.250000
v -0.496959 -1.748986 1.248986
v 0.496959 -1.748986 1.248986
v -0.498311 -1.998311 1.248311
v 0.498311 -1.998311 1.248311
v 0.498986 -1.498986 1.496959
v -0.498311 -1.748311 1.498311
v 0.498311 -1.748311 1.498311
v -0.498311 -0.500000 1.000000
v 0.498311 -0.501689 0.750000
v -0.498311 0.250000 0.500000
v -0.498311 0.000000 0.500000
v -0.498311 -0.250000 0.500000
v 0.498311 -0.250000 0.500000
v 0.498311 0.000000 0.500000
v 0.498311 0.250000 0.500000
v 0.498311 0.498311 0.748311
v -0.498311 0.498311 0.748311
v -0.498311 -0.500000 0.750000
v -0.498311 -0.250000 0.750000
v 0.496959 0.248986 0.748986
v -0.496959 0.248986 0.748986
v -0.498311 0.000000 0.750000
v 0.498311 -0.250000 0.750000
v 0.498311 0.000000 0.750000
v 0.498311 -0.501689 1.000000
v -0.498311 -0.250000 1.000000
v -0.498311 0.248311 0.998311
v -0.496959 -0.001014 0.998986
v 0.498311 -0.250000 1.000000
v 0.496959 -0.001014 0.998986
v 0.498311 0.248311 0.998311
v 0.498311 -0.501689 1.250000
v -0.498311 -0.500000 1.250000
v -0.496959 -0.251014 1.248986
v -0.498311 -0.001689 1.248311
v 0.496959 -0.251014 1.248986
v 0.498311 -0.001689 1.248311
v 0.498986 -0.501014 1.496959
v -0.498311 -0.500000 1.498311
v -0.498311 -0.251689 1.498311
v 0.498311 -0.251689 1.498311
v -0.498311 2.500000 -0.250000
v -0.498311 2.500000 0.000000
v -0.498311 2.500000 0.250000
v 0.498311 2.500000 0.250000
v 0.498311 2.500000 0.000000
v 0.498311 2.500000 -0.250000
v 0.498311 2.750000 -0.498311
v -0.498311 2.750000 -0.498311
v -0.496959 2.748986 0.248986
v -0.498311 2.748311 0.498311
v 0.498311 2.748311 0.498311
v 0.498311 2.750000 -0.250000
v -0.498311 2.750000 -0.250000
v -0.498311 2.750000 0.000000
v 0.496959 2.748986 0.248986
v 0.498311 2.750000 0.000000
v 0.498311 3.000000 -0.498311
v -0.498311 3.000000 -0.498311
v 0.498311 3.000000 -0.250000
v -0.498311 3.000000 -0.250000
v -0.496959 2.998986 -0.001014
v -0.498311 2.998311 0.248311
v 0.498311 2.998311 0.248311
v 0.496959 2.998986 -0.001014
v 0.498311 3.250000 -0.498311
v -0.498311 3.250000 -0.498311
v 0.496959 3.248986 -0.251014
v -0.496959 3.248986 -0.251014
v -0.498311 3.248311 -0.001689
v 0.498311 3.248311 -0.001689
v 0.498311 3.498311 -0.498311
v -0.498311 3.498311 -0.498311
v 0.498311 3.498311 -0.251689
v -0.498311 3.498311 -0.251689
v 1.500000 -1.498311 0.501689
v 1.500000 -0.501689 0.501689
v 1.500000 -0.501689 0.750000
v 1.500000 -1.498311 0.750000
v 1.500000 -1.498311 1.000000
v 1.500000 -1.498311 1.250000
v 1.500000 -1.498311 1.498311
v 1.500000 -0.501689 1.250000
v 1.500000 -0.501689 1.000000
v 1.500000 -0.501689 1.498311
v 1.748311 -1.498311 0.501689
v 1.748311 -0.501689 0.501689
v 1.748986 -0.503041 0.751014
v 1.748986 -1.496959 0.751014
v 1.750000 -1.498311 1.000000
v 1.750000 -1.498311 1.250000
v 1.750000 -1.498311 1.498311
v 1.750000 -0.501689 1.250000
v 1.750000 -0.501689 1.000000
v 1.750000 -0.501689 1.498311
v 1.998986 -1.496959 1.001014
v 2.000000 -1.498311 1.250000
v 2.000000 -1.498311 1.498311
v 1.998311 -1.498311 0.751689
v 2.000000 -0.501689 1.250000
v 1.998986 -0.503041 1.001014
v 2.000000 -0.501689 1.498311
v 1.998311 -0.501689 0.751689
v 2.248311 -1.498311 1.001689
v 2.248986 -1.496959 1.251014
v 2.250000 -1.498311 1.498311
v 2.248986 -0.503041 1.251014
v 2.248311 -0.501689 1.001689
v 2.250000 -0.501689 1.498311
v 2.498311 -1.498311 1.251689
v 2.498311 -1.498311 1.498311
v 2.498311 -0.501689 1.251689
v 2.498311 -0.501689 1.498311
vn -1.0000 0.0000 0.0000
vn 1.0000 0.0000 0.0000
vn -1.0000 -0.0007 0.0007
vn 0.0000 0.0000 -1.0000
vn 0.0000 0.0000 1.0000
vn 0.0000 0.0007 1.0000
vn 1.0000 -0.0007 0.0007
vn 1.0000 -0.0000 0.0003
vn -1.0000 0.0007 0.0002
vn -1.0000 -0.0002 0.0002
vn 1.0000 0.0000 0.0014
vn 0.0000 -0.0027 1.0000
vn 1.0000 0.0005 0.0003
vn 0.0014 0.0000 1.0000
vn 0.0000 -1.0000 0.0000
vn 0.0000 -1.0000 0.0027
vn -1.0000 -0.0027 0.0027
vn 1.0000 -0.0027 0.0027
vn -1.0000 0.0027 0.0027
vn 1.0000 0.0027 0.0027
vn 1.0000 0.0027 -0.0027
vn -1.0000 -0.0027 -0.0027
vn 0.0007 0.0027 1.0000
vn 1.0000 -0.0041 -0.0041
vn 0.0000 1.0000 0.0027
vn 1.0000 -0.0027 -0.0027
vn 0.0000 0.0027 1.0000
vn 0.0007 -0.0027 1.0000
vn 1.0000 0.0041 -0.0041
vn -1.0000 0.0027 -0.0027
vn 0.0000 1.0000 0.0000
vn 0.0003 -1.0000 0.0014
vn -0.0014 0.0000 1.0000
vn 0.0003 1.0000 -0.0014
vn 0.0007 0.0000 -1.0000
vn 0.0003 -1.0000 -0.0014
vn 0.0003 1.0000 0.0014
vn 0.0027 1.0000 -0.0027
vn 1.0000 0.0000 -0.0027
vn 0.0027 1.0000 0.0027
vn 0.0027 -1.0000 -0.0027
vn 0.0027 -1.0000 0.0027
vn 0.0027 0.0000 -1.0000
vn -0.0027 1.0000 -0.0027
vn -0.0027 -1.0000 -0.0027
s off
f 127//1 128//1 140//1 139//1
f 3//2 132//2 131//2 130//2 4//2 8//2 7//2
f 6//3 5//3 11//3 12//3
f 5//1 6//1 2//1 129//1 128//1 127//1 1//1
f 3//4 7//4 5//4 1//4
f 8//5 4//5 2//5 6//5
f 11//4 10//4 14//4 15//4
f 5//4 7//4 10//4 11//4
f 8//6 6//6 12//6 9//6
f 7//7 8//7 9//7 10//7
f 98//2 99//2 109//2 108//2
f 10//8 9//8 100//8 99//8 98//8 13//8 14//8
f 12//9 11//9 15//9 16//9 97//9 96//9 95//9
f 20//10 19//10 23//10 31//10 30//10 29//10 24//10 62//10 63//10 64//10
f 14//11 13//11 17//11 18//11
f 16//1 15//1 19//1 20//1
f 15//4 14//4 18//4 19//4
f 21//12 24//12 36//12 35//12
f 19//4 18//4 22//4 23//4
f 62//1 24//1 69//1 72//1
f 18//13 17//13 67//13 66//13 65//13 21//13 26//13 27//13 28//13 22//13
f 123//14 124//14 25//14 90//14
f 76//15 60//15 164//15 165//15
f 16//1 20//1 61//1 77//1 85//1 25//1 124//1 118//1 93//1 103//1
f 28//2 27//2 39//2 32//2
f 23//4 22//4 33//4 34//4
f 30//1 31//1 37//1 41//1
f 38//16 35//16 36//16 40//16
f 39//2 38//2 46//2 47//2
f 41//17 37//17 45//17 49//17
f 33//2 32//2 42//2 43//2
f 24//1 29//1 40//1 36//1
f 26//2 21//2 35//2 38//2
f 29//17 30//17 41//17 40//17
f 31//1 23//1 34//1 37//1
f 22//2 28//2 32//2 33//2
f 27//18 26//18 38//18 39//18
f 42//2 47//2 54//2 50//2
f 49//1 45//1 53//1 55//1
f 47//16 46//16 48//16 49//16
f 37//1 34//1 44//1 45//1
f 38//12 40//12 48//12 46//12
f 34//4 33//4 43//4 44//4
f 40//1 41//1 49//1 48//1
f 32//18 39//18 47//18 42//18
f 52//4 51//4 57//4 58//4
f 50//16 54//16 55//16 53//16
f 45//17 44//17 52//17 53//17
f 43//18 42//18 50//18 51//18
f 44//4 43//4 51//4 52//4
f 47//12 49//12 55//12 54//12
f 57//15 56//15 59//15 58//15
f 53//19 52//19 58//19 59//19
f 51//20 50//20 56//20 57//20
f 50//12 53//12 59//12 56//12
f 20//1 64//1 70//1 61//1
f 21//2 65//2 74//2 68//2
f 74//12 72//12 69//12 68//12
f 61//1 70//1 78//1 77//1
f 70//17 73//17 81//17 78//17
f 24//16 21//16 68//16 69//16
f 65//18 66//18 75//18 74//18
f 63//17 62//17 72//17 73//17
f 66//2 67//2 71//2 75//2
f 67//21 17//21 60//21 71//21
f 64//1 63//1 73//1 70//1
f 83//2 79//2 87//2 89//2
f 81//16 83//16 89//16 88//16
f 83//12 81//12 80//12 82//12
f 75//18 71//18 79//18 83//18
f 73//1 72//1 80//1 81//1
f 71//2 60//2 76//2 79//2
f 72//16 74//16 82//16 80//16
f 74//2 75//2 83//2 82//2
f 85//22 86//22 91//22 25//22
f 87//12 86//12 88//12 89//12
f 78//1 81//1 88//1 86//1
f 79//18 76//18 84//18 87//18
f 77//17 78//17 86//17 85//17
f 90//23 25//23 91//23 92//23
f 87//24 84//24 90//24 92//24
f 86//16 87//16 92//16 91//16
f 12//1 95//1 106//1 102//1
f 9//25 12//25 102//25 101//25
f 13//26 98//26 108//26 94//26
f 94//2 108//2 114//2 110//2
f 101//27 102//27 106//27 105//27
f 109//2 105//2 116//2 115//2
f 104//1 103//1 93//1 111//1
f 95//19 96//19 107//19 106//19
f 99//20 100//20 105//20 109//20
f 97//1 16//1 103//1 104//1
f 96//1 97//1 104//1 107//1
f 100//2 9//2 101//2 105//2
f 116//27 112//27 113//27 115//27
f 110//20 114//20 121//20 117//20
f 106//1 107//1 113//1 112//1
f 105//25 106//25 112//25 116//25
f 108//20 109//20 115//20 114//20
f 107//19 104//19 111//19 113//19
f 121//25 119//25 125//25 126//25
f 122//27 120//27 119//27 121//27
f 114//2 115//2 122//2 121//2
f 113//1 111//1 119//1 120//1
f 111//19 93//19 118//19 119//19
f 115//25 113//25 120//25 122//25
f 126//28 125//28 124//28 123//28
f 117//29 121//29 126//29 123//29
f 119//30 118//30 124//30 125//30
f 130//20 131//20 142//20 141//20
f 2//5 4//5 137//5 136//5
f 1//1 127//1 139//1 134//1
f 135//25 136//25 137//25 141//25
f 140//1 135//1 148//1 147//1
f 141//2 142//2 150//2 149//2
f 135//27 141//27 149//27 148//27
f 132//2 3//2 133//2 138//2
f 131//2 132//2 138//2 142//2
f 3//4 1//4 134//4 133//4
f 128//19 129//19 135//19 140//19
f 129//30 2//30 136//30 135//30
f 4//21 130//21 141//21 137//21
f 145//20 143//20 151//20 153//20
f 146//1 147//1 155//1 154//1
f 147//25 148//25 149//25 150//25
f 134//1 139//1 146//1 144//1
f 133//4 134//4 144//4 143//4
f 142//20 138//20 145//20 150//20
f 139//19 140//19 147//19 146//19
f 138//2 133//2 143//2 145//2
f 154//27 153//27 159//27 160//27
f 154//25 155//25 156//25 153//25
f 147//27 150//27 156//27 155//27
f 150//2 145//2 153//2 156//2
f 144//19 146//19 154//19 152//19
f 143//4 144//4 152//4 151//4
f 158//31 160//31 159//31 157//31
f 153//18 151//18 157//18 159//18
f 152//17 154//17 160//17 158//17
f 151//4 152//4 158//4 157//4
f 167//15 166//15 176//15 177//15
f 94//31 110//31 169//31 163//31
f 60//32 17//32 161//32 164//32
f 123//33 90//33 167//33 170//33
f 84//15 76//15 165//15 166//15
f 117//34 123//34 170//34 168//34
f 110//31 117//31 168//31 169//31
f 17//35 13//35 162//35 161//35
f 90//36 84//36 166//36 167//36
f 13//37 94//37 163//37 162//37
f 168//31 170//31 180//31 178//31
f 161//4 162//4 172//4 171//4
f 166//15 165//15 175//15 176//15
f 177//15 176//15 182//15 183//15
f 179//38 178//38 185//38 186//38
f 180//5 177//5 183//5 187//5
f 171//39 172//39 173//39 174//39
f 162//40 163//40 173//40 172//40
f 170//5 167//5 177//5 180//5
f 165//41 164//41 174//41 175//41
f 164//42 161//42 171//42 174//42
f 163//38 169//38 179//38 173//38
f 169//31 168//31 178//31 179//31
f 181//43 186//43 193//43 189//43
f 183//41 182//41 190//41 191//41
f 184//39 188//39 186//39 181//39
f 173//31 179//31 186//31 188//31
f 178//31 180//31 187//31 185//31
f 175//15 174//15 184//15 181//15
f 176//41 175//41 181//41 182//41
f 174//43 173//43 188//43 184//43
f 190//43 192//43 197//43 195//43
f 189//39 193//39 192//39 190//39
f 185//38 187//38 194//38 192//38
f 182//15 181//15 189//15 190//15
f 187//5 183//5 191//5 194//5
f 186//31 185//31 192//31 193//31
f 195//2 197//2 198//2 196//2
f 192//44 194//44 198//44 197//44
f 191//45 190//45 195//45 196//45
f 194//5 191//5 196//5 198//5
